<svg xmlns="http://www.w3.org/2000/svg" viewBox="0 0 1600 420" preserveAspectRatio="xMidYMid slice">
  <defs>
    <linearGradient id="bgGrad" x1="0" y1="0" x2="1600" y2="420" gradientUnits="userSpaceOnUse">
      <stop offset="0" stop-color="#1c1c1c"/>
      <stop offset="1" stop-color="#0c0c0c"/>
    </linearGradient>
    <radialGradient id="hubGlow" cx="0.5" cy="0.5" r="0.5">
      <stop offset="0" stop-color="#c9962e" stop-opacity="0.55"/>
      <stop offset="1" stop-color="#c9962e" stop-opacity="0"/>
    </radialGradient>
  </defs>

  <rect x="0" y="0" width="1600" height="420" fill="url(#bgGrad)"/>

  <!-- faint dot texture suggesting a world map -->
  <g fill="#3a3a3a">
    <circle cx="120" cy="120" r="3"/><circle cx="160" cy="140" r="3"/><circle cx="200" cy="110" r="3"/>
    <circle cx="240" cy="150" r="3"/><circle cx="150" cy="180" r="3"/><circle cx="90" cy="170" r="3"/>
    <circle cx="300" cy="90" r="3"/><circle cx="340" cy="130" r="3"/><circle cx="380" cy="100" r="3"/>
    <circle cx="420" cy="150" r="3"/><circle cx="460" cy="120" r="3"/><circle cx="500" cy="160" r="3"/>
    <circle cx="540" cy="110" r="3"/><circle cx="580" cy="140" r="3"/><circle cx="620" cy="100" r="3"/>
    <circle cx="660" cy="170" r="3"/><circle cx="700" cy="130" r="3"/><circle cx="740" cy="160" r="3"/>
    <circle cx="780" cy="110" r="3"/><circle cx="820" cy="150" r="3"/><circle cx="860" cy="120" r="3"/>
    <circle cx="900" cy="180" r="3"/><circle cx="940" cy="140" r="3"/><circle cx="980" cy="100" r="3"/>
    <circle cx="1020" cy="160" r="3"/><circle cx="1060" cy="120" r="3"/><circle cx="1100" cy="150" r="3"/>
    <circle cx="1140" cy="100" r="3"/><circle cx="1180" cy="170" r="3"/><circle cx="1220" cy="130" r="3"/>
    <circle cx="1260" cy="160" r="3"/><circle cx="1300" cy="110" r="3"/><circle cx="1340" cy="150" r="3"/>
    <circle cx="1380" cy="120" r="3"/><circle cx="1420" cy="180" r="3"/><circle cx="1460" cy="140" r="3"/>
    <circle cx="1500" cy="100" r="3"/><circle cx="1540" cy="160" r="3"/>

    <circle cx="130" cy="280" r="3"/><circle cx="180" cy="310" r="3"/><circle cx="230" cy="270" r="3"/>
    <circle cx="280" cy="320" r="3"/><circle cx="330" cy="290" r="3"/><circle cx="380" cy="330" r="3"/>
    <circle cx="430" cy="280" r="3"/><circle cx="480" cy="310" r="3"/><circle cx="530" cy="270" r="3"/>
    <circle cx="580" cy="320" r="3"/><circle cx="630" cy="290" r="3"/><circle cx="680" cy="330" r="3"/>
    <circle cx="730" cy="280" r="3"/><circle cx="780" cy="310" r="3"/><circle cx="830" cy="270" r="3"/>
    <circle cx="880" cy="320" r="3"/><circle cx="930" cy="290" r="3"/><circle cx="980" cy="330" r="3"/>
    <circle cx="1030" cy="280" r="3"/><circle cx="1080" cy="310" r="3"/><circle cx="1130" cy="270" r="3"/>
    <circle cx="1180" cy="320" r="3"/><circle cx="1230" cy="290" r="3"/><circle cx="1280" cy="330" r="3"/>
    <circle cx="1330" cy="280" r="3"/><circle cx="1380" cy="310" r="3"/><circle cx="1430" cy="270" r="3"/>
    <circle cx="1480" cy="320" r="3"/>
  </g>

  <!-- glow behind hub -->
  <circle cx="800" cy="210" r="180" fill="url(#hubGlow)"/>

  <!-- connecting arcs from hub (Qatar HQ) to office nodes -->
  <g fill="none" stroke="#c9962e" stroke-width="1.6" stroke-opacity="0.55">
    <path d="M800,210 Q690,120 500,150"/>
    <path d="M800,210 Q900,110 1080,140"/>
    <path d="M800,210 Q950,260 1180,240"/>
    <path d="M800,210 Q640,300 470,300"/>
    <path d="M800,210 Q560,180 340,190"/>
    <path d="M800,210 Q1000,300 1250,320"/>
  </g>

  <!-- office nodes -->
  <g>
    <circle cx="500" cy="150" r="5" fill="#c9962e"/>
    <circle cx="500" cy="150" r="10" fill="none" stroke="#c9962e" stroke-width="1" stroke-opacity="0.5"/>

    <circle cx="1080" cy="140" r="5" fill="#c9962e"/>
    <circle cx="1080" cy="140" r="10" fill="none" stroke="#c9962e" stroke-width="1" stroke-opacity="0.5"/>

    <circle cx="1180" cy="240" r="5" fill="#c9962e"/>
    <circle cx="1180" cy="240" r="10" fill="none" stroke="#c9962e" stroke-width="1" stroke-opacity="0.5"/>

    <circle cx="470" cy="300" r="5" fill="#c9962e"/>
    <circle cx="470" cy="300" r="10" fill="none" stroke="#c9962e" stroke-width="1" stroke-opacity="0.5"/>

    <circle cx="340" cy="190" r="5" fill="#c9962e"/>
    <circle cx="340" cy="190" r="10" fill="none" stroke="#c9962e" stroke-width="1" stroke-opacity="0.5"/>

    <circle cx="1250" cy="320" r="5" fill="#c9962e"/>
    <circle cx="1250" cy="320" r="10" fill="none" stroke="#c9962e" stroke-width="1" stroke-opacity="0.5"/>
  </g>

  <!-- hub node (headquarters) -->
  <circle cx="800" cy="210" r="7" fill="#ffffff"/>
  <circle cx="800" cy="210" r="14" fill="none" stroke="#c9962e" stroke-width="2"/>
  <circle cx="800" cy="210" r="22" fill="none" stroke="#c9962e" stroke-width="1" stroke-opacity="0.45"/>
</svg>
